PathFileType	4	(X/Y/Z)	Patient5_TMGait_0pt45_1_right_05.trc.trc
DataRate	CameraRate	NumFrames	NumMarkers	Units	OrigDataRate	OrigDataStartFrame	OrigNumFrames
59.829059829060	59.829059829060	5	32	mm	59.829059829060	1	       141
Frame#	Time	R.ASIS			L.ASIS			Chest			R.Shoulder			Neck			L.Shoulder			L.Elbow			L.Wrist			R.Elbow			R.Wrist			L.Thigh.Superior			L.Thigh.Lateral			L.Thigh.Inferior			L.Patella			L.Shank.Superior			L.Shank.Lateral			L.Shank.Inferior			L.Heel			L.Midfoot.Lateral			L.Midfoot.Superior			L.Toe			R.Thigh.Superior			R.Thigh.Lateral			R.Thigh.Inferior			R.Patella			R.Shank.Superior			R.Shank.Lateral			R.Shank.Inferior			R.Heel			R.Midfoot.Lateral			R.Midfoot.Superior			R.Toe			
		X1	Y1	Z1	X2	Y2	Z2	X3	Y3	Z3	X4	Y4	Z4	X5	Y5	Z5	X6	Y6	Z6	X7	Y7	Z7	X8	Y8	Z8	X9	Y9	Z9	X10	Y10	Z10	X11	Y11	Z11	X12	Y12	Z12	X13	Y13	Z13	X14	Y14	Z14	X15	Y15	Z15	X16	Y16	Z16	X17	Y17	Z17	X18	Y18	Z18	X19	Y19	Z19	X20	Y20	Z20	X21	Y21	Z21	X22	Y22	Z22	X23	Y23	Z23	X24	Y24	Z24	X25	Y25	Z25	X26	Y26	Z26	X27	Y27	Z27	X28	Y28	Z28	X29	Y29	Z29	X30	Y30	Z30	X31	Y31	Z31	X32	Y32	Z32	

1	7.930000000000	909.743768491691	1021.803616710785	525.552491940148	939.841697499470	963.316842110661	277.278641162180	1001.257644631709	1444.320857973978	411.349959696917	863.403386095686	1513.991111933580	544.168134875484	892.400082833943	1571.610828521153	361.403099850460	1004.076098153601	1512.782601191301	210.285388943448	998.744441112826	1187.383942716226	74.961223117236	1154.529879991669	949.643755406184	109.314723122153	739.351254810403	1194.610231926354	653.745796136423	953.028706441138	998.207944534595	644.376219129695	938.573892028362	739.348032116519	286.538160122710	859.756303535158	675.535815377890	245.588440571948	919.834581795127	612.700996563315	314.834002685590	906.317040948248	499.537121395248	324.560456698678	853.800716198976	402.499429811492	348.928094631950	785.186913602895	332.979138611862	273.273459989767	815.979171926791	281.447084647252	363.813989996100	672.822668991146	51.333322123624	376.437369749839	761.133778507505	27.453417905833	315.900166713278	858.996510974568	88.066502248395	359.599211598694	966.099463900456	45.189370647004	364.074037215467	966.825303704852	820.630009311284	578.343408128189	904.947552127880	735.216761347841	636.691977466704	1007.511239031159	698.788738267741	584.825715383787	1033.738275681267	606.193278223934	636.821592694973	1004.772607142650	493.348113670561	604.475586575991	918.675504370242	427.233053291561	673.563325728470	993.095544265676	353.774672702663	612.931845897070	890.794929677159	125.233824852141	576.760074765155	953.897724761659	91.582397313303	663.276581145800	1058.652563777320	161.281233222288	669.646314718367	1161.666228789006	120.418193832572	687.475411634686	
2	7.946714285714	908.876955386903	1021.714843810525	524.345179878593	937.159284817401	963.222869851626	276.525181196767	997.971315183916	1443.880697612680	410.916791934253	860.360934920254	1513.570244604349	544.413830331812	888.782065634567	1571.056239893290	361.588503165402	999.959354236090	1512.080837306587	209.839182610270	994.629336698933	1186.176643660104	75.799742721543	1149.352492697911	947.722368287962	110.719869131905	735.424284943316	1194.814495836828	654.439230897324	949.324790191560	998.712265979146	646.187425005808	935.504994949549	738.782466245231	286.414866829613	855.545054000380	675.216950449532	245.920427750266	915.477346985194	612.089847871621	314.622445412737	900.852271889742	498.993549648860	324.246322906316	847.881326108651	402.261219954207	348.863609817969	778.393596744819	333.261949264547	273.502873621732	809.348700246156	281.449690140686	363.794214460134	664.995218563794	51.725330896660	376.450458810797	753.197024420885	27.562389895810	316.095053565808	851.171633682377	88.386531479611	359.369648180703	958.068195093300	44.844241648375	364.251141699046	972.286270116655	822.224325294445	575.167873899996	913.219596829111	736.402618060920	635.863354355921	1014.889240693981	701.483065954102	581.429454530907	1044.008396202859	609.614215450444	633.261202921222	1014.271148371199	495.635645169753	601.850257319426	930.515914959570	429.449430037157	673.405038208086	1002.765770103766	356.071502437595	610.232320705415	898.922926241590	127.582857778089	577.153696693216	964.892822116341	93.921811329806	661.234537553880	1069.509821228305	163.902232808404	664.338553978465	1172.949835380268	123.260182160133	678.790064167530	
3	7.963428571429	908.200579853314	1021.587152599098	523.285871665691	934.531099367923	963.159849764136	275.776666622324	994.763246973662	1443.470413117560	410.499713864707	857.452473301973	1513.144775433919	544.739410141960	885.218181110193	1570.526064548699	361.849831470366	995.813258286805	1511.434954315550	209.412141683251	990.438605602112	1185.036046759639	76.619962178313	1144.140517650109	945.891027489220	112.101195151458	731.602806813531	1195.001153664408	655.170249913970	945.681591718000	999.144430312417	648.050615347739	932.501088997770	738.256065318690	286.229970563391	851.402200169986	674.918511459181	246.229300531192	911.215927122613	611.487496279267	314.323124207699	895.516164334462	498.455972120180	323.864371812369	842.077333403280	402.040070362891	348.759764959893	771.684882282823	333.578921975192	273.711682549798	802.848090576511	281.473631873051	363.757312572037	657.261737732762	52.108960462022	376.475288814356	745.359490733720	27.660369482255	316.290636367836	843.448737721122	88.680628768593	359.147981331585	950.146475568797	44.531991809476	364.400246842332	977.741846154945	823.739545326177	572.273679093502	921.241371600555	737.506905812452	635.057368005460	1022.012820362280	704.037939731529	578.128137837043	1053.912382604681	612.834524845410	629.721449785590	1023.399853056914	497.774870239012	599.203506736396	941.925454375504	431.544597039121	673.153583349692	1011.994571027550	358.221299966259	607.519636626548	906.604628260941	129.827154021756	577.455648968340	975.336866897845	96.110639445627	659.132264830003	1079.827987476883	166.343514360765	659.053315931056	1183.650555934981	125.880759926874	670.184934755675	
4	7.980142857143	907.860749172370	1021.371920368551	522.481034885083	931.996863962100	963.142413010042	275.057929519224	991.702325198280	1443.118232575085	410.122608842401	854.803505710597	1512.707545245378	545.226272696016	881.751164831135	1570.035350875858	362.265887657163	991.594938238544	1510.891768661887	209.029716745847	986.043782276210	1184.023032703287	77.402647637181	1138.814215686843	944.237457909225	113.407371207274	728.026453038070	1195.149514930699	656.020426700575	942.190389963339	999.428055327877	650.004645835013	929.600927237732	737.798976257116	285.945670352292	847.385858357346	674.663488015671	246.498187630044	907.131847181804	610.914768371755	313.888859882407	890.397158755843	497.934982017869	323.370878239518	836.468379485743	401.848542611556	348.591520854426	765.114838053798	333.962707103319	273.886247860640	796.557637472739	281.535058056550	363.686520018115	649.668264067328	52.498738017153	376.520184537822	737.668460309298	27.751571365345	316.484964858731	835.878743327191	88.928593337700	358.940934053443	942.386447703312	44.278528667175	364.499651493679	983.121398041522	825.064192127924	569.873276933638	928.751088673638	738.412096389107	634.283839954680	1028.627511016215	706.285753327485	575.005172477551	1063.077136657681	615.627459172774	626.225950346454	1031.805113317266	499.596562740575	596.507379524401	952.484941068915	433.346987428837	672.690933756421	1020.395222692693	360.052335535593	604.758610669379	913.500571758458	131.807034153611	577.512932167312	984.785247925383	97.979947750392	656.882076521217	1089.158893368706	168.418890445415	653.803862750136	1193.293391247744	128.078049973819	661.763752643356	
5	7.996857142857	907.936714004815	1021.028075823392	521.987434832504	929.572816378748	963.168710079856	274.400592108721	988.829363112470	1442.846572976373	409.808029885025	852.497237287135	1512.253393520478	545.935675211836	878.401385111769	1569.587798863269	362.896951929017	987.258342137666	1510.481474581694	208.715379570455	981.308212595087	1183.180534537650	78.133886303347	1133.279627110924	942.827389422744	114.583263228137	724.816118397744	1195.242427279222	657.077919244075	938.935537363144	999.503973671723	652.070147045722	926.809449466165	737.428013531100	285.547220769868	843.530770975515	674.473544552403	246.712451561440	903.263438424405	610.386309268935	313.305669412903	885.530890946190	497.440208537437	322.747937419414	831.090323107113	401.689424548486	348.346650460529	758.698153438717	334.434762085198	274.022477366624	790.498356272937	281.642073945153	363.567769524421	642.208220284263	52.921848894990	376.588854932798	730.115675035130	27.847584454557	316.676944966144	828.456207177155	89.120361041878	358.751547013314	934.778352475376	44.095625212491	364.540090833019	988.323064588100	826.089712868627	568.056942129657	935.548649420827	739.002325021796	633.531164795309	1034.546154142438	708.081510309664	572.105891034280	1071.228912088228	617.810930233238	622.789328313867	1039.243704564542	500.961607977131	593.736162965837	961.900921506926	434.697643200014	671.911542322336	1027.731228434320	361.422499690647	601.906358554589	919.449668871741	133.365144029124	577.166429816779	992.994257387050	99.389359395100	654.399164436085	1097.246110654962	169.989236930624	648.598556733315	1201.611376790112	129.720149108356	653.634162476134	
